<?xml version="1.0" encoding="utf-8"?>
<!-- Generator: Adobe Illustrator 24.2.0, SVG Export Plug-In . SVG Version: 6.00 Build 0)  -->
<svg version="1.1" id="Layer_1" xmlns="http://www.w3.org/2000/svg" xmlns:xlink="http://www.w3.org/1999/xlink" x="0px" y="0px"
	 viewBox="0 0 512 512" style="enable-background:new 0 0 512 512;" xml:space="preserve">
<style type="text/css">
	.st0{fill:#FDDF6D;}
	.st1{fill:#FCC56B;}
	.st2{fill:#7F184C;}
	.st3{fill:#F9A880;}
	.st4{fill:#FCEB88;}
</style>
<circle class="st0" cx="256" cy="256" r="256"/>
<path class="st1" d="M310.9,474.2c-141.4,0-256-114.6-256-256c0-75.5,32.7-143.4,84.8-190.3C56.7,70.3,0,156.5,0,256
	c0,141.4,114.6,256,256,256c65.8,0,125.9-24.9,171.2-65.7C392.3,464.1,352.8,474.2,310.9,474.2z"/>
<g>
	<path class="st2" d="M302.1,398.4c-27.6,0-53.1-15-66.5-39.1c-2.8-5-1-11.4,4-14.2c5-2.8,11.4-1,14.2,4
		c9.8,17.5,28.3,28.4,48.3,28.4c19.5,0,38.3-11,48.9-28.7c3-4.9,9.4-6.5,14.3-3.6c4.9,3,6.5,9.4,3.6,14.3
		C354.5,383.6,328.9,398.4,302.1,398.4z"/>
	<path class="st2" d="M423,222.7c-3.7,0-7.2-1.9-9.1-5.3c-6.7-12-19.4-19.4-33.1-19.4c-13.4,0-26.2,7.6-33.5,19.7
		c-3,4.9-9.4,6.5-14.3,3.6c-4.9-3-6.5-9.4-3.6-14.3c11-18.4,30.7-29.9,51.4-29.9c21.3,0,40.9,11.5,51.3,30.1c2.8,5,1,11.4-4,14.2
		C426.4,222.3,424.7,222.7,423,222.7z"/>
	<circle class="st2" cx="213.6" cy="208.3" r="31.2"/>
</g>
<g>
	<path class="st3" d="M174.2,281.6c-19,0-34.4,15.4-34.4,34.4h68.8C208.7,297,193.3,281.6,174.2,281.6z"/>
	<path class="st3" d="M427.2,281.6c-19,0-34.4,15.4-34.4,34.4h68.8C461.7,297,446.3,281.6,427.2,281.6z"/>
</g>
<ellipse transform="matrix(0.2723 -0.9622 0.9622 0.2723 141.6362 350.1747)" class="st4" cx="302.3" cy="81.4" rx="29.9" ry="53.5"/>
<path class="st0" d="M249,140c-37.4-0.3-55.7,3.9-72,14c-40.1,24.8-52.3,75.2-58,99c-4.9,20.4-9.6,40-6,62
	c10.5,63.6,84.8,112.7,152,123c76.3,11.7,177.8-21.1,209-104c15.6-41.5,13.6-95.5-14-135C419.7,141.4,343.3,140.8,249,140z"/>
</svg>
