<?xml version="1.0" encoding="UTF-8"?>
<svg xmlns="http://www.w3.org/2000/svg" xmlns:xlink="http://www.w3.org/1999/xlink" width="128pt" height="128pt" viewBox="0 0 128 128" version="1.1">
<g id="surface1">
<path style=" stroke:none;fill-rule:nonzero;fill:rgb(99.215686%,87.45098%,42.745098%);fill-opacity:1;" d="M 128 64 C 128 99.347656 99.347656 128 64 128 C 28.652344 128 0 99.347656 0 64 C 0 28.652344 28.652344 0 64 0 C 99.347656 0 128 28.652344 128 64 Z M 128 64 "/>
<path style=" stroke:none;fill-rule:nonzero;fill:rgb(98.823529%,77.254902%,41.960784%);fill-opacity:1;" d="M 77.714844 118.550781 C 42.367188 118.550781 13.714844 89.898438 13.714844 54.550781 C 13.714844 35.667969 21.894531 18.695312 34.902344 6.980469 C 14.183594 17.574219 0 39.132812 0 64 C 0 99.34375 28.652344 128 64 128 C 80.460938 128 95.46875 121.78125 106.808594 111.570312 C 98.082031 116.03125 88.191406 118.550781 77.714844 118.550781 Z M 77.714844 118.550781 "/>
<path style=" stroke:none;fill-rule:nonzero;fill:rgb(49.803922%,9.411765%,29.803922%);fill-opacity:1;" d="M 75.53125 99.609375 C 68.636719 99.609375 62.265625 95.863281 58.90625 89.832031 C 58.207031 88.574219 58.65625 86.988281 59.914062 86.289062 C 61.167969 85.589844 62.753906 86.042969 63.453125 87.296875 C 65.894531 91.679688 70.523438 94.402344 75.53125 94.402344 C 80.414062 94.402344 85.09375 91.652344 87.75 87.226562 C 88.488281 85.992188 90.085938 85.59375 91.320312 86.332031 C 92.554688 87.070312 92.953125 88.671875 92.214844 89.902344 C 88.625 95.890625 82.234375 99.609375 75.53125 99.609375 Z M 75.53125 99.609375 "/>
<path style=" stroke:none;fill-rule:nonzero;fill:rgb(49.803922%,9.411765%,29.803922%);fill-opacity:1;" d="M 105.746094 55.679688 C 104.832031 55.679688 103.945312 55.199219 103.46875 54.34375 C 101.800781 51.34375 98.632812 49.480469 95.203125 49.480469 C 91.859375 49.480469 88.648438 51.371094 86.824219 54.414062 C 86.085938 55.648438 84.488281 56.046875 83.253906 55.308594 C 82.019531 54.570312 81.621094 52.96875 82.359375 51.738281 C 85.121094 47.132812 90.039062 44.273438 95.203125 44.273438 C 100.519531 44.273438 105.429688 47.160156 108.019531 51.808594 C 108.71875 53.0625 108.265625 54.648438 107.011719 55.347656 C 106.609375 55.574219 106.175781 55.679688 105.746094 55.679688 Z M 105.746094 55.679688 "/>
<path style=" stroke:none;fill-rule:nonzero;fill:rgb(49.803922%,9.411765%,29.803922%);fill-opacity:1;" d="M 61.214844 52.082031 C 61.214844 56.394531 57.71875 59.894531 53.40625 59.894531 C 49.089844 59.894531 45.59375 56.394531 45.59375 52.082031 C 45.59375 47.769531 49.089844 44.273438 53.40625 44.273438 C 57.71875 44.273438 61.214844 47.769531 61.214844 52.082031 Z M 61.214844 52.082031 "/>
<path style=" stroke:none;fill-rule:nonzero;fill:rgb(97.647059%,65.882353%,50.196078%);fill-opacity:1;" d="M 43.558594 70.394531 C 38.808594 70.394531 34.953125 74.246094 34.953125 79 L 52.167969 79 C 52.167969 74.246094 48.3125 70.394531 43.558594 70.394531 Z M 43.558594 70.394531 "/>
<path style=" stroke:none;fill-rule:nonzero;fill:rgb(97.647059%,65.882353%,50.196078%);fill-opacity:1;" d="M 106.808594 70.394531 C 102.058594 70.394531 98.203125 74.246094 98.203125 79 L 115.414062 79 C 115.417969 74.246094 111.5625 70.394531 106.808594 70.394531 Z M 106.808594 70.394531 "/>
<path style=" stroke:none;fill-rule:nonzero;fill:rgb(98.823529%,92.156863%,53.333333%);fill-opacity:1;" d="M 77.613281 13.179688 C 70.511719 11.171875 63.84375 12.757812 62.722656 16.722656 C 61.601562 20.6875 66.449219 25.53125 73.550781 27.542969 C 80.652344 29.554688 87.320312 27.96875 88.441406 24 C 89.5625 20.035156 84.714844 15.191406 77.613281 13.179688 Z M 77.613281 13.179688 "/>
</g>
</svg>
