<?xml version="1.0" encoding="iso-8859-1"?>
<!-- Generator: Adobe Illustrator 19.0.0, SVG Export Plug-In . SVG Version: 6.00 Build 0)  -->
<svg version="1.1" id="Layer_1" xmlns="http://www.w3.org/2000/svg" xmlns:xlink="http://www.w3.org/1999/xlink" x="0px" y="0px"
	 viewBox="0 0 512.003 512.003" style="enable-background:new 0 0 512.003 512.003;" xml:space="preserve">
<circle style="fill:#FDDF6D;" cx="256.001" cy="256.001" r="256.001"/>
<path style="fill:#FCC56B;" d="M310.859,474.208c-141.385,0-256-114.615-256-256c0-75.537,32.722-143.422,84.757-190.281
	C56.738,70.303,0,156.525,0,256c0,141.385,114.615,256,256,256c65.849,0,125.883-24.87,171.243-65.718
	C392.325,464.135,352.77,474.208,310.859,474.208z"/>
<g>
	<path style="fill:#7F184C;" d="M302.132,398.438c-27.589,0-53.075-14.986-66.511-39.108c-2.799-5.025-0.994-11.368,4.03-14.166
		c5.024-2.799,11.367-0.994,14.166,4.03c9.763,17.528,28.276,28.415,48.315,28.415c19.528,0,38.25-10.998,48.865-28.702
		c2.958-4.932,9.355-6.536,14.287-3.577c4.934,2.958,6.535,9.355,3.577,14.287C354.504,383.563,328.935,398.438,302.132,398.438z"/>
	<path style="fill:#7F184C;" d="M422.988,222.72c-3.656,0-7.203-1.929-9.108-5.349c-6.682-11.996-19.351-19.447-33.064-19.447
		c-13.374,0-26.214,7.561-33.512,19.733c-2.956,4.934-9.352,6.536-14.287,3.577c-4.934-2.958-6.535-9.354-3.577-14.287
		c11.039-18.414,30.725-29.853,51.377-29.853c21.262,0,40.904,11.549,51.26,30.139c2.799,5.025,0.994,11.368-4.03,14.166
		C426.443,222.295,424.703,222.72,422.988,222.72z"/>
	<circle style="fill:#7F184C;" cx="213.621" cy="208.331" r="31.243"/>
</g>
<g>
	<path style="fill:#F9A880;" d="M174.242,281.574c-19.011,0-34.423,15.412-34.423,34.423h68.848
		C208.667,296.986,193.254,281.574,174.242,281.574z"/>
	<path style="fill:#F9A880;" d="M427.243,281.574c-19.011,0-34.425,15.412-34.425,34.423h68.848
		C461.668,296.986,446.256,281.574,427.243,281.574z"/>
</g>
<ellipse transform="matrix(0.2723 -0.9622 0.9622 0.2723 141.6411 350.1746)" style="fill:#FCEB88;" cx="302.333" cy="81.443" rx="29.854" ry="53.46"/>
<g>
</g>
<g>
</g>
<g>
</g>
<g>
</g>
<g>
</g>
<g>
</g>
<g>
</g>
<g>
</g>
<g>
</g>
<g>
</g>
<g>
</g>
<g>
</g>
<g>
</g>
<g>
</g>
<g>
</g>
</svg>
